<svg width="35" height="36" viewBox="0 0 35 36" fill="none" xmlns="http://www.w3.org/2000/svg">
<g clip-path="url(#clip0_2_13)">
<path fill-rule="evenodd" clip-rule="evenodd" d="M17.5 35.0152C7.83501 35.0152 0 27.1802 0 17.5152C0 7.85018 7.83501 0.0151672 17.5 0.0151672C27.165 0.0151672 35 7.85018 35 17.5152C35 27.1802 27.165 35.0152 17.5 35.0152ZM7.39368 23.5645L13.0784 18.1872L7.39368 13.4821V23.5645ZM27.6062 10.1213H7.39368V12.1378L17.4999 20.8759L27.6062 12.1378V10.1213ZM27.6062 13.4821L21.9214 18.1872L27.6062 23.5645V13.4821ZM21.2898 18.8593L17.4999 22.2201L13.7101 18.8593L7.39368 24.9088H27.6062L21.2898 18.8593Z" fill="#00001C"/>
</g>
<defs>
<clipPath id="clip0_2_13">
<rect width="35" height="35" fill="white" transform="translate(0 0.0151672)"/>
</clipPath>
</defs>
</svg>
