<svg width="35" height="36" viewBox="0 0 35 36" fill="none" xmlns="http://www.w3.org/2000/svg">
<g clip-path="url(#clip0_2_11)">
<path d="M17.5 0.0151672C7.83501 0.0151672 0 7.85018 0 17.5152C0 27.1802 7.83501 35.0152 17.5 35.0152C27.165 35.0152 35 27.1802 35 17.5152C35 7.85018 27.165 0.0151672 17.5 0.0151672ZM26.5958 11.085L23.4877 25.9234C23.4501 26.1028 23.368 26.27 23.2489 26.4094C23.1298 26.5489 22.9776 26.6562 22.8063 26.7215C22.6349 26.7868 22.4499 26.808 22.2683 26.7831C22.0866 26.7582 21.9141 26.6881 21.7666 26.5791L17.2456 23.239L14.5065 25.823C14.4707 25.8568 14.4285 25.8832 14.3823 25.9005C14.3362 25.9178 14.287 25.9258 14.2378 25.9239C14.1885 25.9221 14.1401 25.9104 14.0954 25.8896C14.0507 25.8688 14.0106 25.8394 13.9774 25.8029L13.9186 25.7383L14.3945 21.1325L22.9725 13.2951C23.0149 13.2564 23.0413 13.2032 23.0464 13.146C23.0516 13.0888 23.0351 13.0318 23.0002 12.9861C22.9654 12.9405 22.9147 12.9096 22.8582 12.8995C22.8017 12.8894 22.7434 12.9009 22.6949 12.9316L11.7247 19.8749L7 18.2881C6.87437 18.2459 6.76488 18.1659 6.68655 18.059C6.60822 17.9521 6.56488 17.8235 6.56248 17.691C6.56009 17.5585 6.59875 17.4285 6.67317 17.3189C6.74758 17.2092 6.85411 17.1253 6.97813 17.0786L25.4639 10.1149C25.6065 10.0612 25.7609 10.0468 25.9109 10.0733C26.061 10.0997 26.2012 10.1659 26.3168 10.2651C26.4325 10.3642 26.5195 10.4926 26.5685 10.6369C26.6176 10.7811 26.627 10.9359 26.5958 11.085Z" fill="#00001C"/>
</g>
<defs>
<clipPath id="clip0_2_11">
<rect width="35" height="35" fill="white" transform="translate(0 0.0151672)"/>
</clipPath>
</defs>
</svg>
