<svg width="35" height="36" viewBox="0 0 35 36" fill="none" xmlns="http://www.w3.org/2000/svg">
<g clip-path="url(#clip0_2_9)">
<path d="M17.5 0.0151672C7.83501 0.0151672 0 7.85018 0 17.5152C0 27.1802 7.83501 35.0152 17.5 35.0152C27.165 35.0152 35 27.1802 35 17.5152C35 7.85018 27.165 0.0151672 17.5 0.0151672ZM26.8217 23.4556H24.601C24.3605 23.4559 24.123 23.4019 23.9062 23.2978C23.6895 23.1936 23.4989 23.042 23.3488 22.854C22.6829 22.0179 21.3709 20.5354 19.9934 19.8987C19.9136 19.8613 19.8257 19.8447 19.7378 19.8503C19.6499 19.8559 19.5648 19.8836 19.4904 19.9308C19.416 19.978 19.3548 20.0432 19.3123 20.1204C19.2697 20.1975 19.2474 20.2842 19.2472 20.3722V22.5685C19.2472 22.685 19.2243 22.8003 19.1797 22.908C19.1352 23.0156 19.0699 23.1134 18.9875 23.1958C18.9051 23.2781 18.8074 23.3435 18.6998 23.3881C18.5921 23.4327 18.4768 23.4556 18.3603 23.4556H17.3335C15.9981 23.4556 13.1225 22.6427 10.8312 19.3049C8.87886 16.4611 8.00857 14.2572 7.50107 12.4703C7.47157 12.3656 7.46674 12.2554 7.48696 12.1485C7.50718 12.0416 7.55191 11.9408 7.61762 11.8541C7.68334 11.7674 7.76826 11.6971 7.86572 11.6487C7.96318 11.6003 8.07053 11.5752 8.17934 11.5753H10.4258C10.6499 11.5751 10.8681 11.6472 11.0479 11.781C11.2277 11.9148 11.3596 12.103 11.4238 12.3177C11.8416 13.7149 12.9235 16.729 14.8361 18.2299C14.8944 18.2758 14.9645 18.3045 15.0383 18.3125C15.1121 18.3205 15.1867 18.3076 15.2535 18.2752C15.3204 18.2428 15.3767 18.1923 15.4162 18.1294C15.4557 18.0665 15.4766 17.9938 15.4767 17.9195V14.4013C15.4767 13.706 15.1754 13.0104 14.7051 12.4668C14.6373 12.3888 14.5934 12.293 14.5786 12.1907C14.5637 12.0885 14.5786 11.9841 14.6215 11.8901C14.6643 11.7961 14.7333 11.7164 14.8202 11.6605C14.9071 11.6047 15.0082 11.5749 15.1115 11.5749H18.575C18.7534 11.5749 18.9244 11.6458 19.0505 11.7719C19.1767 11.898 19.2475 12.069 19.2475 12.2474V16.9864C19.2475 17.055 19.2664 17.1223 19.3021 17.1809C19.3378 17.2394 19.389 17.2871 19.4499 17.3185C19.5109 17.35 19.5793 17.3641 19.6478 17.3592C19.7162 17.3544 19.782 17.3308 19.8379 17.291C20.4736 16.8385 21.0181 16.1699 21.5189 15.4184C22.1492 14.4732 22.9183 12.9106 23.3041 12.0997C23.3788 11.9426 23.4965 11.8099 23.6436 11.717C23.7906 11.624 23.961 11.5747 24.135 11.5747H26.585C26.6873 11.5747 26.7879 11.6008 26.8773 11.6505C26.9667 11.7003 27.0419 11.772 27.0958 11.859C27.1497 11.9459 27.1805 12.0452 27.1853 12.1474C27.1901 12.2496 27.1687 12.3513 27.1232 12.4429C26.5049 13.6829 25.3008 15.9578 24.1676 17.2925C24.0054 17.4844 23.926 17.7328 23.9468 17.9833C23.9676 18.2337 24.0869 18.4656 24.2786 18.6282C25.0172 19.2593 26.1703 20.426 27.4135 22.3694C27.4821 22.4758 27.5207 22.5987 27.5254 22.7252C27.5301 22.8516 27.5006 22.977 27.44 23.0882C27.3795 23.1993 27.2901 23.2921 27.1813 23.3568C27.0725 23.4214 26.9483 23.4555 26.8217 23.4556Z" fill="#00001C"/>
</g>
<defs>
<clipPath id="clip0_2_9">
<rect width="35" height="35" fill="white" transform="translate(0 0.0151672)"/>
</clipPath>
</defs>
</svg>
